<svg xmlns="http://www.w3.org/2000/svg" xmlns:xlink="http://www.w3.org/1999/xlink" width="20" height="20" viewBox="0 0 20 20">
    <defs>
        <path id="a" d="M0 0h16v18H0z"/>
    </defs>
    <g fill="none" fill-rule="evenodd" transform="translate(2 1)">
        <mask id="b" fill="#fff">
            <use xlink:href="#a"/>
        </mask>
        <path fill="#ADB5BD" d="M11.554.35c0 .875-.32 1.692-.957 2.449-.769.899-1.699 1.418-2.708 1.336a2.688 2.688 0 0 1-.02-.331c0-.84.366-1.74 1.015-2.475A3.912 3.912 0 0 1 10.121.4c.499-.243.971-.378 1.415-.401.013.117.018.234.018.35m3.376 13.287a9.496 9.496 0 0 1-.94 1.69c-.495.706-.9 1.194-1.212 1.465-.484.446-1.002.674-1.557.686-.399 0-.88-.113-1.439-.343-.561-.23-1.078-.343-1.549-.343-.495 0-1.026.114-1.593.343-.568.23-1.026.35-1.376.362-.533.022-1.064-.212-1.593-.705-.338-.294-.761-.8-1.267-1.516-.544-.764-.991-1.652-1.341-2.662C.688 11.522.5 10.464.5 9.44c0-1.172.254-2.184.761-3.031a4.463 4.463 0 0 1 1.594-1.612 4.292 4.292 0 0 1 2.155-.608c.422 0 .977.13 1.666.388.687.258 1.128.388 1.322.388.144 0 .635-.153 1.466-.457.785-.283 1.448-.4 1.992-.354 1.472.119 2.578.699 3.313 1.744-1.316.798-1.967 1.916-1.954 3.349.011 1.117.416 2.046 1.213 2.783.36.343.763.608 1.212.796-.098.28-.201.55-.31.81" mask="url(#b)"/>
    </g>
</svg>
